<svg xmlns="http://www.w3.org/2000/svg" width="16" height="16" viewBox="0 0 24 24">
  <g fill="none">
    <path stroke="#AFB1B3" stroke-linecap="square" stroke-width="2" d="M8.5 18.5a2.5 2.5 0 1 0-5 0a2.5 2.5 0 0 0 5 0Zm0 0a3 3 0 0 0 3-3v-7a3 3 0 0 1 3-3h1m0 0a2.5 2.5 0 1 0 5 0a2.5 2.5 0 0 0-5 0Z"/>
    <path stroke="#AFB1B3" stroke-width="2" fill="#AFB1B3" d="m5 4l.332.668L6 5l.668.332L5 6l-.332-.668L4 5l.668-.332zm13.5 12.25l.7 1.55l1.55.7l-1.55.7l-.7 1.55l-.7-1.55l-1.55-.7l1.55-.7z"/>
  </g>
</svg>
