<svg xmlns="http://www.w3.org/2000/svg" width="40" height="40" viewBox="0 0 40 40">
  <defs>
    <linearGradient id="bgGradDark" x1="0%" y1="0%" x2="100%" y2="100%">
      <stop offset="0%" style="stop-color:#818CF8"/>
      <stop offset="100%" style="stop-color:#A78BFA"/>
    </linearGradient>
  </defs>
  <rect width="40" height="40" rx="8" ry="8" fill="url(#bgGradDark)"/>
  <g transform="translate(8,8) scale(1)" fill="none">
    <path d="M6 16a2.5 2.5 0 1 1 0 5a2.5 2.5 0 0 1 0-5M18 3a2.5 2.5 0 1 1 0 5a2.5 2.5 0 0 1 0-5" fill="#1E1E2E" opacity="0.3"/>
    <path stroke="#1E1E2E" stroke-linecap="square" stroke-width="2" d="M8.5 18.5a2.5 2.5 0 1 0-5 0a2.5 2.5 0 0 0 5 0Zm0 0a3 3 0 0 0 3-3v-7a3 3 0 0 1 3-3h1m0 0a2.5 2.5 0 1 0 5 0a2.5 2.5 0 0 0-5 0Z"/>
    <path stroke="#1E1E2E" stroke-width="2" d="m5 4l.332.668L6 5l-.668.332L5 6l-.332-.668L4 5l.668-.332zm13.5 12.25l.7 1.55l1.55.7l-1.55.7l-.7 1.55l-.7-1.55l-1.55-.7l1.55-.7z"/>
  </g>
</svg>
