<svg xmlns="http://www.w3.org/2000/svg" width="40" height="40" viewBox="0 0 40 40">
  <defs>
    <linearGradient id="bgGradDark" x1="0%" y1="0%" x2="100%" y2="100%">
      <stop offset="0%" style="stop-color:#818CF8;stop-opacity:1" />
      <stop offset="100%" style="stop-color:#A78BFA;stop-opacity:1" />
    </linearGradient>
  </defs>
  <!-- Rounded square background (lighter for dark theme contrast) -->
  <rect width="40" height="40" rx="8" ry="8" fill="url(#bgGradDark)"/>
  <!-- Icon paths -->
  <g transform="translate(6,4) scale(0.875)">
    <path fill="#1E1E2E" d="M22 11V9h-4v2h1v7h-1v2h4v-2h-1v-7zm6.618 14.973l-1.723-3.462c-.34-.681-1.45-.681-1.79 0L22 28.75l-1.105-2.222a1 1 0 0 0-.895-.555h-4v2.01h3.382l1.723 3.462a1 1 0 0 0 1.79 0L26 25.205l1.105 2.222a1 1 0 0 0 .895.555h4v-2.009zM13 9h-3L6.503 20h2l.601-2h4.778l.619 2h2zm-3.294 7l1.628-5.411l.256-.003L13.264 16zM2 2h26v15h2V0H0v30h11v-2H2z"/>
  </g>
</svg>
